<svg width="168" height="38" viewBox="0 0 168 38" fill="none" xmlns="http://www.w3.org/2000/svg">
<path d="M17.074 24.936C18.866 24.936 20.2314 24.264 21.17 22.92C22.13 21.5547 22.61 19.784 22.61 17.608C22.61 15.432 22.13 13.6613 21.17 12.296C20.2314 10.9307 18.866 10.248 17.074 10.248C15.3034 10.248 13.9274 10.9307 12.946 12.296C11.986 13.6613 11.506 15.432 11.506 17.608C11.506 19.7627 11.986 21.5227 12.946 22.888C13.9274 24.2533 15.3034 24.936 17.074 24.936ZM25.266 26.184C23.1967 28.424 20.4554 29.544 17.042 29.544C13.6287 29.544 10.8874 28.424 8.81804 26.184C6.77004 23.944 5.74604 21.0853 5.74604 17.608C5.74604 14.1307 6.77004 11.272 8.81804 9.032C10.8874 6.792 13.6287 5.672 17.042 5.672C20.4554 5.672 23.1967 6.792 25.266 9.032C27.3354 11.272 28.37 14.1307 28.37 17.608C28.37 21.0853 27.3354 23.944 25.266 26.184ZM30.2603 29V12.616H35.2523V15.176H35.3483C36.4576 13.2987 37.951 12.36 39.8283 12.36C40.319 12.36 40.6603 12.4027 40.8523 12.488V16.968H40.7243C39.103 16.7333 37.823 17.0213 36.8843 17.832C35.9456 18.6213 35.4763 19.8907 35.4763 21.64V29H30.2603ZM49.8138 34.664C47.5311 34.664 45.6858 34.2053 44.2778 33.288C42.8911 32.392 42.0698 31.0907 41.8138 29.384H46.8698C47.2325 30.4507 48.1925 30.984 49.7498 30.984C51.8405 30.984 52.8858 29.9387 52.8858 27.848V26.216H52.7578C51.6485 27.4747 50.2511 28.104 48.5658 28.104C46.6031 28.104 44.9285 27.4107 43.5418 26.024C42.1551 24.6373 41.4618 22.7387 41.4618 20.328C41.4618 17.9173 42.1018 15.9547 43.3818 14.44C44.6618 12.904 46.3151 12.136 48.3418 12.136C50.3685 12.136 51.9045 12.8827 52.9498 14.376H53.0138V12.616H58.0058V27.4C58.0058 29.7253 57.2805 31.5387 55.8298 32.84C54.4645 34.056 52.4591 34.664 49.8138 34.664ZM49.7818 24.232C50.8698 24.232 51.6911 23.8587 52.2458 23.112C52.8218 22.344 53.1098 21.352 53.1098 20.136C53.1098 18.984 52.8111 18.024 52.2138 17.256C51.6378 16.4667 50.8271 16.072 49.7818 16.072C48.8005 16.072 48.0111 16.4453 47.4138 17.192C46.8378 17.9387 46.5498 18.9307 46.5498 20.168C46.5498 21.4053 46.8378 22.3973 47.4138 23.144C48.0111 23.8693 48.8005 24.232 49.7818 24.232ZM65.3423 29.416C63.657 29.416 62.3023 28.9787 61.2783 28.104C60.2543 27.2293 59.7423 26.0027 59.7423 24.424C59.7423 22.76 60.297 21.5547 61.4063 20.808C62.5156 20.04 64.0516 19.528 66.0143 19.272C67.6143 19.08 68.7023 18.8667 69.2783 18.632C69.8756 18.376 70.1743 17.9813 70.1743 17.448C70.1743 16.2747 69.4276 15.688 67.9343 15.688C66.3343 15.688 65.449 16.392 65.2783 17.8H60.4783C60.5423 16.1787 61.2036 14.8347 62.4623 13.768C63.7423 12.7013 65.5556 12.168 67.9023 12.168C70.249 12.168 72.0196 12.616 73.2143 13.512C74.601 14.5147 75.2943 16.072 75.2943 18.184V26.44C75.2943 27.7413 75.4863 28.52 75.8703 28.776V29H70.8143C70.601 28.7013 70.4196 28.0933 70.2703 27.176H70.2063C69.161 28.6693 67.5396 29.416 65.3423 29.416ZM67.0063 26.088C67.9876 26.088 68.777 25.8213 69.3743 25.288C69.993 24.7333 70.3023 24.0187 70.3023 23.144V21.192C69.7903 21.448 68.8943 21.736 67.6143 22.056C66.569 22.2907 65.833 22.568 65.4063 22.888C64.9796 23.208 64.7663 23.6667 64.7663 24.264C64.7663 25.48 65.513 26.088 67.0063 26.088ZM77.8228 29V12.616H82.8468V14.856H82.9428C84.2015 13.0427 85.8868 12.136 87.9988 12.136C89.7695 12.136 91.1561 12.712 92.1588 13.864C93.1828 14.9947 93.6948 16.488 93.6948 18.344V29H88.4788V19.4C88.4788 18.504 88.2548 17.8 87.8068 17.288C87.3801 16.7547 86.7508 16.488 85.9188 16.488C85.0655 16.488 84.3721 16.808 83.8388 17.448C83.3055 18.088 83.0388 18.92 83.0388 19.944V29H77.8228ZM96.0728 29V12.616H101.289V29H96.0728ZM96.0728 10.344V6.12H101.289V10.344H96.0728ZM103.312 29V25.128L109.808 18.12L111.216 16.68V16.584C110.213 16.6053 109.541 16.616 109.2 16.616H104.08V12.616H117.52V16.456L111.312 23.208L109.648 24.904V25C110.778 24.9787 111.589 24.968 112.08 24.968H118V29H103.312ZM127.479 29.48C124.834 29.48 122.711 28.6693 121.111 27.048C119.532 25.4053 118.743 23.3147 118.743 20.776C118.743 18.3013 119.522 16.2427 121.079 14.6C122.658 12.9573 124.684 12.136 127.159 12.136C129.399 12.136 131.266 12.8187 132.759 14.184C134.722 15.976 135.682 18.632 135.639 22.152H123.863C124.034 23.2827 124.428 24.168 125.047 24.808C125.666 25.4267 126.498 25.736 127.543 25.736C128.887 25.736 129.794 25.192 130.263 24.104H135.351C134.967 25.6827 134.05 26.9733 132.599 27.976C131.17 28.9787 129.463 29.48 127.479 29.48ZM123.895 19.048H130.359C130.274 18.0667 129.943 17.288 129.367 16.712C128.812 16.136 128.108 15.848 127.255 15.848C125.399 15.848 124.279 16.9147 123.895 19.048ZM143.817 29.512C141.684 29.512 139.956 28.7333 138.633 27.176C137.311 25.6187 136.649 23.496 136.649 20.808C136.649 18.248 137.311 16.168 138.633 14.568C139.977 12.9467 141.705 12.136 143.817 12.136C145.78 12.136 147.305 12.9147 148.393 14.472H148.489V6.12H153.705V29H148.713V26.792H148.649C147.583 28.6053 145.972 29.512 143.817 29.512ZM145.161 25.384C146.228 25.384 147.071 24.968 147.689 24.136C148.308 23.2827 148.617 22.1733 148.617 20.808C148.617 19.3787 148.329 18.2373 147.753 17.384C147.177 16.5093 146.335 16.072 145.225 16.072C144.201 16.072 143.391 16.4987 142.793 17.352C142.217 18.2053 141.929 19.336 141.929 20.744C141.929 22.1733 142.217 23.304 142.793 24.136C143.369 24.968 144.159 25.384 145.161 25.384ZM155.974 29V23.624H161.446V29H155.974Z" fill="white"/>
</svg>
