<svg width="157" height="30" viewBox="0 0 157 30" fill="none" xmlns="http://www.w3.org/2000/svg">
<path d="M12.2805 19.936C14.0725 19.936 15.4378 19.264 16.3765 17.92C17.3365 16.5547 17.8165 14.784 17.8165 12.608C17.8165 10.432 17.3365 8.66133 16.3765 7.296C15.4378 5.93067 14.0725 5.248 12.2805 5.248C10.5098 5.248 9.13383 5.93067 8.1525 7.296C7.1925 8.66133 6.7125 10.432 6.7125 12.608C6.7125 14.7627 7.1925 16.5227 8.1525 17.888C9.13383 19.2533 10.5098 19.936 12.2805 19.936ZM20.4725 21.184C18.4032 23.424 15.6618 24.544 12.2485 24.544C8.83517 24.544 6.09383 23.424 4.0245 21.184C1.9765 18.944 0.9525 16.0853 0.9525 12.608C0.9525 9.13067 1.9765 6.272 4.0245 4.032C6.09383 1.792 8.83517 0.671999 12.2485 0.671999C15.6618 0.671999 18.4032 1.792 20.4725 4.032C22.5418 6.272 23.5765 9.13067 23.5765 12.608C23.5765 16.0853 22.5418 18.944 20.4725 21.184ZM25.4668 24V7.616H30.4588V10.176H30.5548C31.6641 8.29867 33.1574 7.36 35.0348 7.36C35.5254 7.36 35.8668 7.40267 36.0588 7.488V11.968H35.9308C34.3094 11.7333 33.0294 12.0213 32.0908 12.832C31.1521 13.6213 30.6828 14.8907 30.6828 16.64V24H25.4668ZM45.0203 29.664C42.7376 29.664 40.8923 29.2053 39.4843 28.288C38.0976 27.392 37.2763 26.0907 37.0203 24.384H42.0763C42.4389 25.4507 43.3989 25.984 44.9563 25.984C47.0469 25.984 48.0923 24.9387 48.0923 22.848V21.216H47.9643C46.8549 22.4747 45.4576 23.104 43.7723 23.104C41.8096 23.104 40.1349 22.4107 38.7483 21.024C37.3616 19.6373 36.6683 17.7387 36.6683 15.328C36.6683 12.9173 37.3083 10.9547 38.5883 9.44C39.8683 7.904 41.5216 7.136 43.5483 7.136C45.5749 7.136 47.1109 7.88267 48.1563 9.376H48.2203V7.616H53.2123V22.4C53.2123 24.7253 52.4869 26.5387 51.0363 27.84C49.6709 29.056 47.6656 29.664 45.0203 29.664ZM44.9883 19.232C46.0763 19.232 46.8976 18.8587 47.4523 18.112C48.0283 17.344 48.3163 16.352 48.3163 15.136C48.3163 13.984 48.0176 13.024 47.4203 12.256C46.8443 11.4667 46.0336 11.072 44.9883 11.072C44.0069 11.072 43.2176 11.4453 42.6203 12.192C42.0443 12.9387 41.7563 13.9307 41.7563 15.168C41.7563 16.4053 42.0443 17.3973 42.6203 18.144C43.2176 18.8693 44.0069 19.232 44.9883 19.232ZM60.5488 24.416C58.8634 24.416 57.5088 23.9787 56.4848 23.104C55.4608 22.2293 54.9488 21.0027 54.9488 19.424C54.9488 17.76 55.5034 16.5547 56.6128 15.808C57.7221 15.04 59.2581 14.528 61.2208 14.272C62.8208 14.08 63.9088 13.8667 64.4848 13.632C65.0821 13.376 65.3808 12.9813 65.3808 12.448C65.3808 11.2747 64.6341 10.688 63.1408 10.688C61.5408 10.688 60.6554 11.392 60.4848 12.8H55.6848C55.7488 11.1787 56.4101 9.83467 57.6688 8.768C58.9488 7.70133 60.7621 7.168 63.1088 7.168C65.4554 7.168 67.2261 7.616 68.4208 8.512C69.8074 9.51467 70.5008 11.072 70.5008 13.184V21.44C70.5008 22.7413 70.6928 23.52 71.0768 23.776V24H66.0208C65.8074 23.7013 65.6261 23.0933 65.4768 22.176H65.4128C64.3674 23.6693 62.7461 24.416 60.5488 24.416ZM62.2128 21.088C63.1941 21.088 63.9834 20.8213 64.5808 20.288C65.1994 19.7333 65.5088 19.0187 65.5088 18.144V16.192C64.9968 16.448 64.1008 16.736 62.8208 17.056C61.7754 17.2907 61.0394 17.568 60.6128 17.888C60.1861 18.208 59.9728 18.6667 59.9728 19.264C59.9728 20.48 60.7194 21.088 62.2128 21.088ZM73.0293 24V7.616H78.0533V9.856H78.1493C79.4079 8.04267 81.0933 7.136 83.2053 7.136C84.9759 7.136 86.3626 7.712 87.3653 8.864C88.3893 9.99467 88.9013 11.488 88.9013 13.344V24H83.6853V14.4C83.6853 13.504 83.4613 12.8 83.0133 12.288C82.5866 11.7547 81.9573 11.488 81.1253 11.488C80.2719 11.488 79.5786 11.808 79.0453 12.448C78.5119 13.088 78.2453 13.92 78.2453 14.944V24H73.0293ZM91.2793 24V7.616H96.4953V24H91.2793ZM91.2793 5.344V1.12H96.4953V5.344H91.2793ZM98.518 24V20.128L105.014 13.12L106.422 11.68V11.584C105.419 11.6053 104.747 11.616 104.406 11.616H99.286V7.616H112.726V11.456L106.518 18.208L104.854 19.904V20C105.985 19.9787 106.795 19.968 107.286 19.968H113.206V24H98.518ZM122.686 24.48C120.04 24.48 117.918 23.6693 116.318 22.048C114.739 20.4053 113.95 18.3147 113.95 15.776C113.95 13.3013 114.728 11.2427 116.286 9.6C117.864 7.95733 119.891 7.136 122.366 7.136C124.606 7.136 126.472 7.81867 127.966 9.184C129.928 10.976 130.888 13.632 130.846 17.152H119.07C119.24 18.2827 119.635 19.168 120.254 19.808C120.872 20.4267 121.704 20.736 122.75 20.736C124.094 20.736 125 20.192 125.47 19.104H130.558C130.174 20.6827 129.256 21.9733 127.806 22.976C126.376 23.9787 124.67 24.48 122.686 24.48ZM119.102 14.048H125.566C125.48 13.0667 125.15 12.288 124.574 11.712C124.019 11.136 123.315 10.848 122.462 10.848C120.606 10.848 119.486 11.9147 119.102 14.048ZM139.024 24.512C136.89 24.512 135.162 23.7333 133.84 22.176C132.517 20.6187 131.856 18.496 131.856 15.808C131.856 13.248 132.517 11.168 133.84 9.568C135.184 7.94667 136.912 7.136 139.024 7.136C140.986 7.136 142.512 7.91467 143.6 9.472H143.696V1.12H148.912V24H143.92V21.792H143.856C142.789 23.6053 141.178 24.512 139.024 24.512ZM140.368 20.384C141.434 20.384 142.277 19.968 142.896 19.136C143.514 18.2827 143.824 17.1733 143.824 15.808C143.824 14.3787 143.536 13.2373 142.96 12.384C142.384 11.5093 141.541 11.072 140.432 11.072C139.408 11.072 138.597 11.4987 138 12.352C137.424 13.2053 137.136 14.336 137.136 15.744C137.136 17.1733 137.424 18.304 138 19.136C138.576 19.968 139.365 20.384 140.368 20.384Z" fill="#453C67"/>
<path d="M151.18 24V18.624H156.652V24H151.18Z" fill="#6D67E4"/>
</svg>
